<svg xmlns="http://www.w3.org/2000/svg" viewBox="0 0 250 39"><path fill="#FFF" d="M0 .1h38.8v38.8H0z"/><path fill="#002C58" d="M21.8 8.9c0-.5-.5-.9-1-.9s-.9.5-.9 1 .5.9 1 .9c.5-.1.9-.5.9-1zM5.2 13.7C6.2 11.5 8.3 9 8.3 9s-.7-3.1-.2-3.6c.5-.5 3.6 1.7 3.6 1.7s2.5-1 6.2-1 10.9 2.7 10.9 2.7L27.5 14c-.4-.3-.8-.4-1.3-.4-1.2 0-2.2 1-2.2 2.2 0 1.2 1 2.2 2.2 2.2h.3l-.5 2s-.1.7-1.1.9c-.9.2-4.2-1.1-4.2-1.1v3.9L32.1 21v-.1c.7-1.8 2.5-3.1 4.6-3.1.7 0 1.4.1 2 .4V.1H0v21.2c1.9-.6 3.1-1.1 3.1-1.1s1.1-4.3 2.1-6.5zm14.6 21.5l5.3 3.7h13.8V22.5l-3.1 1.2-16 11.5z"/><path fill="#878787" d="M110.9 12.9h3.7c3.9 0 5.5.2 7 .7 2.8.9 4.5 3.6 4.5 6.9 0 3-1.4 5.4-3.7 6.5-1.7.7-3.1.9-7.3.9h-1.9v10.9h-2.3V12.9zm2.2 13.1h1.9c2.7 0 3.6 0 4.9-.3 2.5-.5 3.8-2.3 3.8-5.2 0-2.5-1.1-4.3-2.9-5-1.1-.4-2.6-.6-4.5-.6h-3.2V26zm22.8-13.3h1.7l9 26.1h-2.3l-2.5-7.3h-9.9l-2.6 7.3H127l8.9-26.1zm-3.5 16.8h8.7l-4.3-13.7-4.4 13.7zm18.5-16.6h3.9c4.1 0 5.2.1 6.9.7 2.7.9 4.3 3.3 4.3 6.4 0 3.4-1.9 5.8-5.5 7l7.1 11.8h-2.8l-6.9-11.5h-4.8v11.5h-2.2V12.9zm2.3 12.5h1.8c3.5 0 4.3-.1 5.6-.5 2-.7 3.1-2.4 3.1-4.8 0-2.2-1-3.9-2.7-4.5-1.3-.5-2.3-.6-6-.6h-1.9v10.4zm16.3-12.5h15.6v1.9h-6.7v23.9h-2.2V14.9h-6.7v-2zm20.3 0h2.4l13 22.7V12.9h2.1v25.9h-2.6l-12.9-22.5v22.5h-2.1V12.9zm26.3 11.5h10.6v1.9h-10.6v10.5h11.5v1.9h-13.7V12.9h13.5v1.9H216v9.6zm17.2-11.5h3.9c4.1 0 5.2.1 6.9.7 2.7.9 4.3 3.3 4.3 6.4 0 3.4-1.9 5.8-5.6 7l7.1 11.8h-2.8l-6.9-11.5h-4.8v11.5h-2.2V12.9zm2.2 12.5h1.8c3.5 0 4.3-.1 5.6-.5 2-.7 3.1-2.4 3.1-4.8 0-2.2-1-3.9-2.7-4.5-1.3-.5-2.3-.6-6-.6h-1.9v10.4z"/><path fill="#002C58" d="M53.4 13h6.9c3.1 0 4.7.2 6 .7 2.5.9 4 3.1 4 5.9 0 2.9-1.3 4.5-4.2 5.5 3.8.9 5.6 3 5.6 6.4 0 3.2-1.9 5.9-4.8 6.8-1.8.5-2.9.7-7.5.7h-6.1V13zm4.9 10.4h2.1c3.8 0 5.1-.8 5.1-3.2 0-2.4-1.3-3.2-5.4-3.2h-1.8v6.4zm0 11.5h2.2c5 0 6.2-.7 6.2-3.7 0-2.9-1.4-3.8-6.1-3.8h-2.3v7.5zM73.5 13h4.7l4.9 20.2L87.9 13h4.3L97 33.2l5-20.2h4.5l-6.6 25.9h-5.6L90 22l-4.2 16.8h-5.6L73.5 13z"/></svg>